<?xml version="1.0" standalone="no"?>
<!DOCTYPE svg PUBLIC "-//W3C//DTD SVG 20010904//EN"
 "http://www.w3.org/TR/2001/REC-SVG-20010904/DTD/svg10.dtd">
<svg version="1.0" xmlns="http://www.w3.org/2000/svg"
 width="567.000000pt" height="567.000000pt" viewBox="0 0 567.000000 567.000000"
 preserveAspectRatio="xMidYMid meet">

<g transform="translate(0.000000,567.000000) scale(0.100000,-0.100000)"
fill="#000000" stroke="none">
<path d="M3623 5473 c53 -61 70 -106 69 -183 0 -45 2 -59 8 -45 26 59 -4 157
-68 223 -42 44 -43 44 -9 5z"/>
<path d="M3540 5457 c0 -3 12 -12 26 -22 15 -9 23 -12 20 -6 -7 11 -46 35 -46
28z"/>
<path d="M2970 5409 c0 -5 5 -7 10 -4 6 3 10 8 10 11 0 2 -4 4 -10 4 -5 0 -10
-5 -10 -11z"/>
<path d="M3620 5395 c13 -14 26 -25 28 -25 3 0 -5 11 -18 25 -13 14 -26 25
-28 25 -3 0 5 -11 18 -25z"/>
<path d="M3020 5395 c14 -8 30 -14 35 -14 6 0 -1 6 -15 14 -14 8 -29 14 -35
14 -5 0 1 -6 15 -14z"/>
<path d="M2880 5376 c0 -3 9 -10 20 -16 11 -6 20 -8 20 -6 0 3 -9 10 -20 16
-11 6 -20 8 -20 6z"/>
<path d="M2947 5373 c-4 -3 -7 -11 -7 -17 0 -6 5 -5 12 2 6 6 9 14 7 17 -3 3
-9 2 -12 -2z"/>
<path d="M3070 5377 c0 -3 12 -12 26 -22 15 -9 23 -12 20 -6 -7 11 -46 35 -46
28z"/>
<path d="M3661 5343 c7 -12 15 -20 18 -17 3 2 -3 12 -13 22 -17 16 -18 16 -5
-5z"/>
<path d="M2808 5293 c-20 -21 -41 -49 -47 -63 l-12 -25 18 25 c10 14 33 42 52
62 43 49 36 49 -11 1z"/>
<path d="M3032 5282 c18 -28 34 -49 36 -47 5 5 -45 82 -58 90 -7 4 3 -15 22
-43z"/>
<path d="M3160 5316 c0 -2 8 -10 18 -17 15 -13 16 -12 3 4 -13 16 -21 21 -21
13z"/>
<path d="M3247 5238 c56 -63 143 -190 143 -210 0 -9 3 -9 10 2 5 8 5 17 1 20
-5 3 -32 39 -59 80 -28 41 -72 95 -98 120 l-48 45 51 -57z"/>
<path d="M3132 5232 c20 -24 53 -74 73 -110 69 -129 86 -157 97 -167 18 -16
-92 186 -128 235 -18 25 -43 54 -55 65 -13 11 -7 0 13 -23z"/>
<path d="M2619 5227 c-89 -51 -92 -54 -84 -66 5 -9 10 -8 18 3 7 8 41 33 77
55 77 48 69 55 -11 8z"/>
<path d="M2239 5203 c-13 -16 -12 -17 4 -4 16 13 21 21 13 21 -2 0 -10 -8 -17
-17z"/>
<path d="M2081 5177 c-1 -21 25 -87 34 -87 3 0 3 5 -1 11 -4 7 -13 30 -20 53
-7 23 -13 33 -13 23z"/>
<path d="M2215 5169 c-4 -6 -5 -12 -2 -15 2 -3 7 2 10 11 7 17 1 20 -8 4z"/>
<path d="M2500 5154 c0 -8 5 -12 10 -9 6 3 10 10 10 16 0 5 -4 9 -10 9 -5 0
-10 -7 -10 -16z"/>
<path d="M2376 5108 c-8 -32 -7 -38 5 -38 6 0 9 7 6 15 -4 8 -2 17 3 20 12 8
13 25 1 25 -5 0 -11 -10 -15 -22z"/>
<path d="M3042 5100 c0 -14 2 -19 5 -12 2 6 2 18 0 25 -3 6 -5 1 -5 -13z"/>
<path d="M2436 5070 c4 -14 13 -38 20 -55 11 -24 13 -25 8 -5 -4 14 -13 39
-20 55 -11 24 -13 25 -8 5z"/>
<path d="M3419 5073 c-13 -16 -12 -17 4 -4 16 13 21 21 13 21 -2 0 -10 -8 -17
-17z"/>
<path d="M2103 5070 c-35 -14 -29 -53 13 -100 20 -22 39 -39 41 -37 2 3 -12
20 -32 40 -40 40 -49 87 -15 87 11 0 20 5 20 10 0 6 -1 10 -2 9 -2 0 -13 -4
-25 -9z"/>
<path d="M2505 5070 c3 -5 8 -10 11 -10 2 0 4 5 4 10 0 6 -5 10 -11 10 -5 0
-7 -4 -4 -10z"/>
<path d="M2380 5005 c3 -30 8 -57 12 -60 8 -8 -3 99 -11 108 -4 4 -4 -18 -1
-48z"/>
<path d="M2679 5052 c-2 -4 -22 -20 -44 -35 -22 -15 -35 -27 -29 -27 6 0 23 9
38 21 l26 20 1 -43 1 -43 9 54 c8 48 7 77 -2 53z"/>
<path d="M3401 5005 c1 -19 18 -51 18 -35 0 8 -4 22 -9 30 -5 8 -9 11 -9 5z"/>
<path d="M2551 4971 c-16 -11 -19 -21 -26 -106 l-4 -60 10 65 c5 36 17 75 25
88 16 24 16 26 -5 13z"/>
<path d="M3492 4966 c7 -8 15 -12 17 -11 5 6 -10 25 -20 25 -5 0 -4 -6 3 -14z"/>
<path d="M2435 4944 l-30 -26 33 16 c17 9 32 21 32 26 0 13 -1 13 -35 -16z"/>
<path d="M3061 4920 c0 -30 6 -73 14 -95 18 -50 18 -42 1 65 -14 83 -14 83
-15 30z"/>
<path d="M3421 4934 c0 -11 3 -14 6 -6 3 7 2 16 -1 19 -3 4 -6 -2 -5 -13z"/>
<path d="M2169 4907 c11 -14 11 -20 0 -34 -13 -15 -12 -15 9 -2 12 8 22 16 22
19 0 3 -10 11 -22 19 -21 13 -22 13 -9 -2z"/>
<path d="M2242 4866 c-1 -24 -10 -77 -21 -117 -25 -93 -19 -103 8 -14 26 82
38 175 24 175 -6 0 -11 -20 -11 -44z"/>
<path d="M2843 4855 c0 -33 2 -45 4 -27 2 18 2 45 0 60 -2 15 -4 0 -4 -33z"/>
<path d="M3290 4900 c0 -3 7 -30 15 -60 8 -30 15 -68 16 -85 1 -21 3 -24 6
-10 6 21 -14 120 -28 145 -5 8 -8 13 -9 10z"/>
<path d="M2222 4870 c0 -14 2 -19 5 -12 2 6 2 18 0 25 -3 6 -5 1 -5 -13z"/>
<path d="M2896 4810 c6 -61 23 -134 30 -128 2 3 -5 45 -16 94 -16 72 -19 78
-14 34z"/>
<path d="M3501 4768 c21 -38 29 -46 29 -29 0 6 -11 23 -25 38 l-26 28 22 -37z"/>
<path d="M3062 4765 c0 -16 2 -22 5 -12 2 9 2 23 0 30 -3 6 -5 -1 -5 -18z"/>
<path d="M2122 4714 c-18 -35 -32 -68 -32 -72 1 -4 17 24 36 62 19 37 34 70
32 72 -2 2 -18 -26 -36 -62z"/>
<path d="M2337 4728 c-4 -24 -9 -69 -13 -101 -5 -48 -10 -60 -29 -67 -12 -5
-25 -16 -29 -26 -6 -17 -6 -17 12 -1 10 9 25 17 34 17 11 0 17 24 26 107 12
103 10 158 -1 71z"/>
<path d="M3091 4754 c0 -11 3 -14 6 -6 3 7 2 16 -1 19 -3 4 -6 -2 -5 -13z"/>
<path d="M3148 4740 c-4 -8 -8 -51 -11 -95 l-4 -80 13 55 c14 53 15 150 2 120z"/>
<path d="M3252 4675 c0 -44 -3 -93 -6 -110 -3 -16 2 -8 10 19 13 40 14 62 7
110 l-10 61 -1 -80z"/>
<path d="M3331 4644 c0 -45 -3 -97 -6 -115 -4 -26 -1 -23 11 14 12 37 13 61 6
115 l-9 67 -2 -81z"/>
<path d="M3542 4690 c0 -8 5 -49 13 -90 9 -55 13 -64 13 -35 0 37 -25 158 -26
125z"/>
<path d="M2740 4641 c0 -6 4 -13 10 -16 6 -3 7 1 4 9 -7 18 -14 21 -14 7z"/>
<path d="M2366 4593 c-6 -58 -3 -119 7 -129 4 -4 7 34 7 84 0 51 -2 92 -4 92
-2 0 -7 -21 -10 -47z"/>
<path d="M3486 4574 c7 -31 17 -61 23 -67 10 -10 -1 51 -19 97 -16 43 -18 30
-4 -30z"/>
<path d="M2141 4568 c-5 -13 -21 -61 -36 -108 -14 -47 -29 -92 -31 -100 -5
-13 -4 -13 5 0 8 12 43 110 76 218 7 21 -5 13 -14 -10z"/>
<path d="M2510 4575 c9 -10 9 -15 1 -15 -6 0 -11 -14 -11 -32 0 -29 1 -30 18
-15 27 24 32 21 28 -15 -4 -35 14 -91 34 -103 9 -6 9 -2 1 14 -7 12 -9 36 -5
56 8 43 24 56 21 18 -2 -24 2 -28 26 -31 23 -3 27 0 27 22 0 16 -6 26 -15 26
-8 0 -19 9 -25 20 -14 26 -6 25 30 -2 17 -12 30 -31 30 -42 0 -17 2 -18 10 -6
18 29 24 -2 8 -46 -8 -24 -14 -44 -12 -44 10 0 44 83 44 106 l0 27 25 -23 c30
-29 33 -13 4 19 -18 19 -19 25 -8 32 11 7 10 9 -4 9 -10 0 -36 9 -58 20 -33
15 -49 17 -87 10 -27 -5 -54 -5 -64 1 -25 13 -32 11 -18 -6z"/>
<path d="M2461 4520 c-13 -11 -19 -20 -14 -20 6 0 18 9 28 20 23 25 17 25 -14
0z"/>
<path d="M2080 4498 c-15 -21 -17 -28 -6 -19 16 13 41 51 33 51 -2 0 -14 -15
-27 -32z"/>
<path d="M3225 4509 c-6 -18 -12 -20 -40 -15 -53 10 -165 -45 -133 -65 10 -7
10 -11 0 -21 -14 -14 -16 -58 -2 -58 6 0 10 12 10 28 1 25 1 26 15 8 18 -23
45 -14 45 16 l0 22 20 -22 c25 -27 25 -33 -1 -66 -11 -14 -16 -26 -10 -26 22
0 56 65 56 108 l0 43 33 -36 c19 -20 31 -43 28 -50 -4 -12 0 -12 19 -3 13 6
22 15 19 20 -3 4 -9 6 -14 3 -4 -3 -10 1 -13 8 -4 10 2 13 20 9 23 -4 22 -2
-12 31 -30 29 -36 41 -31 62 8 30 0 34 -9 4z m-115 -79 c0 -5 -4 -10 -9 -10
-6 0 -13 5 -16 10 -3 6 1 10 9 10 9 0 16 -4 16 -10z"/>
<path d="M3357 4459 c3 -35 7 -66 9 -68 9 -10 3 105 -5 118 -6 9 -7 -9 -4 -50z"/>
<path d="M2305 4500 c-3 -5 -1 -10 4 -10 6 0 11 5 11 10 0 6 -2 10 -4 10 -3 0
-8 -4 -11 -10z"/>
<path d="M3095 4500 c-3 -5 -2 -10 4 -10 5 0 13 5 16 10 3 6 2 10 -4 10 -5 0
-13 -4 -16 -10z"/>
<path d="M3477 4453 c-3 -16 -1 -35 4 -43 6 -10 8 -2 9 28 0 48 -5 55 -13 15z"/>
<path d="M3511 4464 c-1 -7 5 -26 12 -44 17 -40 8 -100 -23 -143 l-21 -32 25
28 c41 45 50 96 27 154 -11 26 -20 43 -20 37z"/>
<path d="M3550 4463 c0 -6 8 -17 18 -24 16 -13 16 -13 2 6 -8 11 -16 22 -17
24 -2 2 -3 0 -3 -6z"/>
<path d="M2231 4434 c-1 -20 10 -46 30 -74 l31 -42 -36 -141 c-20 -77 -34
-142 -32 -144 6 -7 35 87 52 172 9 44 21 86 26 92 7 9 0 25 -23 54 -18 23 -36
58 -40 78 -7 36 -7 36 -8 5z"/>
<path d="M1809 4438 c7 -10 25 -17 40 -17 l26 2 -25 4 c-14 3 -32 10 -40 16
-13 11 -13 10 -1 -5z"/>
<path d="M2288 4443 c6 -2 18 -2 25 0 6 3 1 5 -13 5 -14 0 -19 -2 -12 -5z"/>
<path d="M1955 4425 c-16 -8 -23 -14 -14 -15 8 0 24 7 35 15 23 18 18 18 -21
0z"/>
<path d="M2009 4423 c-13 -16 -12 -17 4 -4 16 13 21 21 13 21 -2 0 -10 -8 -17
-17z"/>
<path d="M2052 4415 c0 -16 2 -22 5 -12 2 9 2 23 0 30 -3 6 -5 -1 -5 -18z"/>
<path d="M2280 4413 c0 -6 8 -17 18 -24 16 -13 16 -13 2 6 -8 11 -16 22 -17
24 -2 2 -3 0 -3 -6z"/>
<path d="M3579 4391 c13 -12 28 -21 34 -21 12 0 11 0 -28 24 l-30 17 24 -20z"/>
<path d="M3436 4369 c-8 -42 0 -50 9 -9 4 17 5 34 2 36 -2 3 -7 -10 -11 -27z"/>
<path d="M3471 4364 c0 -12 -12 -38 -26 -59 -14 -20 -24 -42 -23 -47 6 -17 60
91 55 110 -4 13 -5 13 -6 -4z"/>
<path d="M2352 4344 c10 -10 20 -15 24 -12 3 4 -5 12 -18 18 -22 12 -22 12 -6
-6z"/>
<path d="M3270 4340 c-6 -11 -8 -26 -4 -32 4 -6 3 -8 -4 -4 -13 8 -45 -36 -77
-107 -14 -29 -35 -63 -47 -74 -31 -28 -137 -81 -222 -109 l-69 -24 -81 41
c-44 23 -112 62 -151 86 -38 25 -63 38 -56 29 17 -20 156 -105 236 -143 63
-30 76 -53 36 -63 -25 -6 -42 -30 -22 -30 6 0 11 5 11 10 0 16 47 12 54 -5 3
-8 13 -15 23 -15 16 0 16 1 0 13 -10 6 -19 25 -20 40 -2 26 3 31 48 48 28 10
56 17 63 14 7 -3 11 -1 8 3 -3 5 27 24 66 43 71 34 120 79 133 121 9 27 56
110 60 106 2 -2 -3 -27 -11 -57 -19 -77 -9 -76 14 1 35 113 40 160 12 108z"/>
<path d="M3301 4259 c-18 -55 -31 -103 -28 -105 2 -3 18 35 34 83 16 48 33 96
37 106 5 9 4 17 -1 17 -5 0 -24 -45 -42 -101z"/>
<path d="M3050 4330 c0 -5 5 -10 11 -10 5 0 7 5 4 10 -3 6 -8 10 -11 10 -2 0
-4 -4 -4 -10z"/>
<path d="M3080 4320 c0 -5 5 -10 11 -10 5 0 7 5 4 10 -3 6 -8 10 -11 10 -2 0
-4 -4 -4 -10z"/>
<path d="M2331 4153 c-1 -135 -8 -235 -17 -280 -4 -21 -1 -23 38 -23 24 0 49
-4 56 -9 7 -4 20 -34 28 -67 9 -32 27 -73 40 -91 18 -24 29 -59 41 -135 9 -57
17 -104 18 -105 1 -2 76 18 83 22 1 1 -7 28 -18 59 -11 32 -18 62 -17 67 1 5
-26 35 -61 67 -71 64 -70 63 -107 322 -10 69 -24 132 -30 140 -29 35 -50 160
-25 145 6 -3 10 -25 11 -48 0 -23 5 -51 10 -62 6 -13 7 3 3 50 -3 39 -7 71 -7
71 -1 1 -11 4 -23 8 -21 6 -21 4 -23 -131z m67 -163 c11 -58 18 -108 15 -112
-2 -5 -22 -8 -43 -8 l-38 0 29 60 c31 64 35 80 20 80 -5 0 -12 -13 -16 -30
-10 -43 -29 -52 -22 -9 4 19 10 58 13 87 4 29 10 49 15 45 4 -4 16 -55 27
-113z"/>
<path d="M2386 3905 c-3 -8 -1 -15 4 -15 6 0 10 7 10 15 0 8 -2 15 -4 15 -2 0
-6 -7 -10 -15z"/>
<path d="M2470 4203 c0 -4 7 -47 15 -95 9 -48 17 -106 19 -130 4 -56 32 -112
52 -104 12 4 36 -37 100 -167 46 -94 84 -166 84 -160 0 7 -22 60 -50 117 -27
57 -50 109 -50 115 0 5 -14 31 -31 56 -17 25 -29 49 -25 52 3 3 26 -4 51 -16
24 -11 50 -21 57 -20 7 0 -5 8 -28 17 -73 30 -85 43 -91 95 -3 26 -3 47 0 47
3 0 27 -21 53 -47 52 -53 32 -22 -28 42 -44 48 -108 152 -108 176 0 10 -4 21
-10 24 -5 3 -10 3 -10 -2z m68 -155 c18 -33 23 -55 20 -93 -2 -27 -7 -49 -13
-49 -5 1 -9 16 -7 32 2 17 -2 41 -9 54 -15 27 -29 98 -20 98 4 0 17 -19 29
-42z m-9 -113 c0 -5 -4 -3 -9 5 -5 8 -9 22 -9 30 0 16 17 -16 18 -35z m51 -35
c0 -5 -4 -10 -10 -10 -5 0 -10 5 -10 10 0 6 5 10 10 10 6 0 10 -4 10 -10z"/>
<path d="M3432 4190 c0 -14 2 -19 5 -12 2 6 2 18 0 25 -3 6 -5 1 -5 -13z"/>
<path d="M2801 4176 c-7 -8 -8 -17 -3 -20 6 -3 13 1 16 10 9 23 2 28 -13 10z"/>
<path d="M2870 4163 c8 -3 23 -12 33 -21 19 -17 32 -11 24 13 -4 9 -18 15 -39
14 -18 0 -26 -3 -18 -6z"/>
<path d="M3212 4135 c-7 -14 -33 -49 -59 -78 -30 -32 -39 -46 -23 -36 27 17
107 126 98 134 -2 3 -10 -6 -16 -20z"/>
<path d="M3255 4120 c-4 -12 -5 -24 -2 -27 3 -2 8 5 12 17 4 12 5 24 2 27 -3
2 -8 -5 -12 -17z"/>
<path d="M2052 4090 c0 -14 2 -19 5 -12 2 6 2 18 0 25 -3 6 -5 1 -5 -13z"/>
<path d="M3181 4037 c-29 -35 -30 -38 -7 -17 24 22 52 60 44 60 -2 0 -18 -19
-37 -43z"/>
<path d="M2043 4025 c0 -22 2 -30 4 -17 2 12 2 30 0 40 -3 9 -5 -1 -4 -23z"/>
<path d="M2287 3985 c-11 -110 -15 -122 -42 -129 -77 -19 -119 -104 -135 -267
-6 -63 -12 -126 -14 -142 -1 -15 2 -26 7 -24 11 3 11 7 21 150 4 54 14 121 23
149 17 60 67 115 111 124 29 6 31 9 37 68 4 33 5 81 3 106 -2 38 -4 32 -11
-35z"/>
<path d="M3047 4010 c-8 -22 -12 -40 -7 -40 9 0 34 69 28 76 -3 2 -12 -14 -21
-36z"/>
<path d="M2991 3978 c-16 -24 -38 -52 -49 -64 l-20 -21 60 -29 c34 -16 72 -43
85 -61 28 -37 41 -97 24 -116 -9 -11 -2 -29 31 -80 l43 -66 48 0 49 -1 -24 29
c-12 17 -45 69 -73 116 -27 48 -65 104 -83 125 -32 38 -32 39 -10 43 17 3 15
4 -7 4 -16 0 -40 3 -53 7 -21 7 -22 10 -9 24 8 10 17 24 21 32 4 8 -4 2 -17
-14 -18 -21 -30 -26 -45 -22 -20 7 -20 9 14 53 19 25 39 54 45 64 18 34 1 20
-30 -23z"/>
<path d="M3432 4000 c0 -14 2 -19 5 -12 2 6 2 18 0 25 -3 6 -5 1 -5 -13z"/>
<path d="M3471 3994 c0 -11 3 -14 6 -6 3 7 2 16 -1 19 -3 4 -6 -2 -5 -13z"/>
<path d="M2934 3985 c-10 -8 -14 -15 -8 -15 6 0 17 7 24 15 16 19 9 19 -16 0z"/>
<path d="M2180 3928 c-13 -35 -47 -119 -76 -187 -53 -124 -57 -144 -11 -61 28
52 121 300 114 306 -2 2 -14 -24 -27 -58z"/>
<path d="M2890 3971 c0 -6 4 -13 10 -16 6 -3 7 1 4 9 -7 18 -14 21 -14 7z"/>
<path d="M2929 3943 l-24 -28 28 24 c25 23 32 31 24 31 -2 0 -14 -12 -28 -27z"/>
<path d="M3200 3941 c-6 -12 -7 -21 -1 -21 10 0 24 30 17 37 -2 3 -9 -5 -16
-16z"/>
<path d="M2720 3940 c8 -5 22 -9 30 -9 10 0 8 3 -5 9 -27 12 -43 12 -25 0z"/>
<path d="M3441 3914 c0 -11 3 -14 6 -6 3 7 2 16 -1 19 -3 4 -6 -2 -5 -13z"/>
<path d="M3163 3884 c-9 -14 -26 -30 -37 -34 -17 -7 -15 -9 14 -9 57 -1 121
-40 152 -91 28 -46 81 -251 71 -277 -3 -8 3 -13 18 -13 15 0 19 3 12 8 -6 4
-23 58 -37 119 -38 167 -75 228 -157 252 l-39 12 15 29 c19 37 12 39 -12 4z"/>
<path d="M2780 3879 c-7 -11 -10 -23 -7 -25 2 -2 9 7 15 21 14 30 7 33 -8 4z"/>
<path d="M2870 3875 c0 -8 4 -15 10 -15 23 0 120 -72 140 -104 34 -56 1 -77
-56 -35 l-29 21 28 -26 c31 -29 68 -34 87 -11 24 29 -55 122 -140 165 -34 17
-40 18 -40 5z"/>
<path d="M2830 3873 c0 -6 8 -17 18 -24 16 -13 16 -13 2 6 -8 11 -16 22 -17
24 -2 2 -3 0 -3 -6z"/>
<path d="M3460 3875 c0 -5 5 -17 10 -25 5 -8 10 -10 10 -5 0 6 -5 17 -10 25
-5 8 -10 11 -10 5z"/>
<path d="M2200 3859 c0 -5 5 -7 10 -4 6 3 10 8 10 11 0 2 -4 4 -10 4 -5 0 -10
-5 -10 -11z"/>
<path d="M2725 3840 c11 -5 29 -9 40 -9 l20 0 -20 9 c-11 5 -29 9 -40 9 l-20
0 20 -9z"/>
<path d="M3271 3834 c0 -11 3 -14 6 -6 3 7 2 16 -1 19 -3 4 -6 -2 -5 -13z"/>
<path d="M2810 3825 c0 -8 2 -15 4 -15 2 0 6 7 10 15 3 8 1 15 -4 15 -6 0 -10
-7 -10 -15z"/>
<path d="M2860 3827 c-1 -30 173 -285 202 -296 5 -2 3 5 -5 15 -65 80 -153
204 -173 243 -13 25 -24 42 -24 38z"/>
<path d="M3480 3820 c0 -8 5 -22 10 -30 9 -13 10 -13 10 0 0 8 -5 22 -10 30
-9 13 -10 13 -10 0z"/>
<path d="M3372 3790 c0 -14 2 -19 5 -12 2 6 2 18 0 25 -3 6 -5 1 -5 -13z"/>
<path d="M2475 3765 c6 -29 84 -120 94 -110 2 3 -11 22 -31 43 -20 20 -43 51
-52 67 l-17 30 6 -30z"/>
<path d="M2700 3750 c30 -16 60 -29 65 -29 6 0 -15 13 -45 29 -30 16 -59 29
-65 29 -5 0 15 -13 45 -29z"/>
<path d="M2812 3720 c0 -14 2 -19 5 -12 2 6 2 18 0 25 -3 6 -5 1 -5 -13z"/>
<path d="M3381 3724 c0 -11 3 -14 6 -6 3 7 2 16 -1 19 -3 4 -6 -2 -5 -13z"/>
<path d="M2770 3688 c0 -20 46 -58 71 -58 10 0 21 5 25 12 5 8 2 9 -11 4 -27
-10 -53 2 -70 32 -10 18 -14 22 -15 10z"/>
<path d="M1752 3655 c-17 -37 -14 -45 4 -12 9 16 14 31 11 33 -2 2 -9 -7 -15
-21z"/>
<path d="M3471 3604 c0 -11 3 -14 6 -6 3 7 2 16 -1 19 -3 4 -6 -2 -5 -13z"/>
<path d="M1726 3595 c-9 -26 -7 -32 5 -12 6 10 9 21 6 23 -2 3 -7 -2 -11 -11z"/>
<path d="M3411 3584 c0 -11 3 -14 6 -6 3 7 2 16 -1 19 -3 4 -6 -2 -5 -13z"/>
<path d="M2622 3541 c12 -22 24 -38 26 -36 5 4 -37 75 -44 75 -3 0 6 -18 18
-39z"/>
<path d="M3481 3564 c0 -11 3 -14 6 -6 3 7 2 16 -1 19 -3 4 -6 -2 -5 -13z"/>
<path d="M2041 3534 c0 -11 3 -14 6 -6 3 7 2 16 -1 19 -3 4 -6 -2 -5 -13z"/>
<path d="M2740 3513 c0 -13 5 -23 10 -23 13 0 13 11 0 30 -8 12 -10 11 -10 -7z"/>
<path d="M3640 3524 c0 -6 7 -19 16 -30 14 -18 14 -18 3 6 -14 31 -19 36 -19
24z"/>
<path d="M3007 3482 c17 -15 38 -42 47 -60 9 -17 19 -32 22 -32 8 0 -37 77
-58 100 -10 11 -24 20 -29 20 -6 0 2 -12 18 -28z"/>
<path d="M3320 3506 c0 -2 7 -9 15 -16 13 -11 14 -10 9 4 -5 14 -24 23 -24 12z"/>
<path d="M2031 3484 c0 -11 3 -14 6 -6 3 7 2 16 -1 19 -3 4 -6 -2 -5 -13z"/>
<path d="M2645 3480 c-3 -5 -1 -10 4 -10 6 0 11 5 11 10 0 6 -2 10 -4 10 -3 0
-8 -4 -11 -10z"/>
<path d="M1925 3454 c-9 -15 -12 -23 -6 -20 11 7 35 46 28 46 -3 0 -12 -12
-22 -26z"/>
<path d="M3685 3440 c9 -16 18 -30 21 -30 2 0 -2 14 -11 30 -9 17 -18 30 -21
30 -2 0 2 -13 11 -30z"/>
<path d="M3440 3453 c0 -6 7 -14 16 -17 8 -3 26 -29 39 -58 16 -35 23 -43 18
-23 -3 17 -9 37 -13 45 -12 23 -60 65 -60 53z"/>
<path d="M2299 3439 c63 -5 128 -13 145 -19 21 -7 27 -7 20 0 -16 16 -119 30
-204 29 -68 -2 -65 -3 39 -10z"/>
<path d="M3415 3405 c52 -67 61 -76 39 -37 -10 18 -32 45 -49 60 -24 23 -23
19 10 -23z"/>
<path d="M2039 3407 c-19 -15 -29 -35 -33 -67 -3 -25 -8 -56 -11 -70 -2 -14 2
-7 9 15 8 22 15 55 15 72 1 26 7 36 31 48 29 15 38 25 23 25 -5 0 -20 -10 -34
-23z"/>
<path d="M2200 3405 c-6 -8 -10 -21 -8 -31 2 -11 7 -6 15 15 13 34 11 38 -7
16z"/>
<path d="M1879 3393 c-13 -16 -12 -17 4 -4 16 13 21 21 13 21 -2 0 -10 -8 -17
-17z"/>
<path d="M2711 3394 c0 -11 3 -14 6 -6 3 7 2 16 -1 19 -3 4 -6 -2 -5 -13z"/>
<path d="M1779 3343 c-13 -16 -12 -17 4 -4 9 7 17 15 17 17 0 8 -8 3 -21 -13z"/>
<path d="M1829 3333 c-13 -16 -12 -17 4 -4 16 13 21 21 13 21 -2 0 -10 -8 -17
-17z"/>
<path d="M3737 3344 c-5 -5 152 -245 176 -269 15 -15 2 7 -89 147 -45 70 -84
125 -87 122z"/>
<path d="M3180 3306 c0 -31 6 -34 13 -6 3 11 1 23 -4 26 -5 3 -9 -6 -9 -20z"/>
<path d="M3400 3315 c7 -9 17 -44 21 -78 l8 -62 -3 68 c-3 56 -1 67 13 68 12
0 11 2 -4 9 -11 5 -26 9 -34 9 -11 1 -11 -2 -1 -14z"/>
<path d="M3105 3310 c-3 -5 1 -10 10 -10 9 0 13 5 10 10 -3 6 -8 10 -10 10 -2
0 -7 -4 -10 -10z"/>
<path d="M3480 3310 c0 -5 5 -10 11 -10 5 0 7 5 4 10 -3 6 -8 10 -11 10 -2 0
-4 -4 -4 -10z"/>
<path d="M2945 3300 c-70 -7 -161 -28 -153 -35 2 -2 28 2 58 10 30 8 78 15
107 15 28 0 55 5 58 10 3 6 5 9 3 9 -2 -1 -34 -5 -73 -9z"/>
<path d="M2719 3270 c-7 -35 -4 -48 7 -38 3 4 4 21 2 40 l-3 33 -6 -35z"/>
<path d="M1981 3224 c0 -11 3 -14 6 -6 3 7 2 16 -1 19 -3 4 -6 -2 -5 -13z"/>
<path d="M1971 3184 c0 -11 3 -14 6 -6 3 7 2 16 -1 19 -3 4 -6 -2 -5 -13z"/>
<path d="M3453 3183 c9 -2 25 -2 35 0 9 3 1 5 -18 5 -19 0 -27 -2 -17 -5z"/>
<path d="M2172 3160 c7 -11 16 -20 20 -20 5 0 3 9 -4 20 -7 11 -16 20 -20 20
-5 0 -3 -9 4 -20z"/>
<path d="M2034 3130 c-1 -38 1 -38 15 0 7 22 7 30 -2 30 -7 0 -12 -14 -13 -30z"/>
<path d="M2490 3145 c-8 -9 -8 -15 -2 -15 12 0 26 19 19 26 -2 2 -10 -2 -17
-11z"/>
<path d="M3411 3150 c-1 -17 -18 -50 -45 -92 -10 -16 -14 -28 -9 -28 14 0 66
107 60 122 -4 9 -6 9 -6 -2z"/>
<path d="M1989 3133 c-13 -17 -13 -17 6 -3 11 8 22 16 24 17 2 2 0 3 -6 3 -6
0 -17 -8 -24 -17z"/>
<path d="M3484 3125 c-1 -14 2 -25 7 -25 5 0 9 11 9 25 0 33 -15 33 -16 0z"/>
<path d="M2233 3133 c15 -2 37 -2 50 0 12 2 0 4 -28 4 -27 0 -38 -2 -22 -4z"/>
<path d="M2437 3110 c-3 -11 -1 -20 4 -20 5 0 9 2 9 4 0 2 3 11 6 20 3 9 2 16
-4 16 -5 0 -12 -9 -15 -20z"/>
<path d="M2686 3113 c-6 -14 -5 -15 5 -6 7 7 10 15 7 18 -3 3 -9 -2 -12 -12z"/>
<path d="M2015 3082 c4 -8 11 -26 15 -40 7 -22 8 -23 9 -6 1 11 -6 29 -15 40
-8 10 -12 13 -9 6z"/>
<path d="M3494 3060 c6 -62 45 -218 61 -249 8 -17 15 -47 15 -69 0 -31 9 -48
45 -91 25 -29 45 -60 46 -69 0 -11 2 -12 6 -5 6 16 -27 70 -61 102 -19 18 -26
35 -26 63 0 21 -7 55 -16 76 -9 20 -22 69 -30 107 -7 39 -20 93 -29 120 -12
41 -14 44 -11 15z"/>
<path d="M2947 3043 c22 -48 22 -48 29 -40 6 6 -33 77 -42 77 -2 0 4 -17 13
-37z"/>
<path d="M2421 3029 c-6 -18 -11 -39 -10 -48 1 -9 7 4 15 28 16 51 12 68 -5
20z"/>
<path d="M3191 3035 c13 -13 28 -25 33 -25 5 0 -1 11 -14 25 -13 14 -28 25
-33 25 -5 0 1 -11 14 -25z"/>
<path d="M3940 3025 c12 -22 30 -51 41 -65 17 -21 17 -18 -3 16 -35 61 -64 99
-38 49z"/>
<path d="M1539 3013 l-24 -28 28 24 c25 23 32 31 24 31 -2 0 -14 -12 -28 -27z"/>
<path d="M3362 2980 c0 -19 4 -46 8 -60 8 -24 8 -24 8 5 0 17 -4 44 -8 60 l-8
30 0 -35z"/>
<path d="M2023 2965 c0 -22 2 -30 4 -17 2 12 2 30 0 40 -3 9 -5 -1 -4 -23z"/>
<path d="M3148 2993 c7 -3 16 -2 19 1 4 3 -2 6 -13 5 -11 0 -14 -3 -6 -6z"/>
<path d="M2728 2963 c6 -2 18 -2 25 0 6 3 1 5 -13 5 -14 0 -19 -2 -12 -5z"/>
<path d="M3040 2960 c-8 -5 -10 -10 -5 -10 6 0 17 5 25 10 8 5 11 10 5 10 -5
0 -17 -5 -25 -10z"/>
<path d="M1939 2908 c-19 -29 -57 -80 -85 -114 -28 -33 -63 -78 -77 -100 -14
-21 -51 -64 -82 -94 -31 -30 -61 -64 -67 -75 -18 -36 132 118 167 171 19 28
41 57 51 64 16 14 100 135 123 178 22 41 4 23 -30 -30z"/>
<path d="M2688 2953 c7 -3 16 -2 19 1 4 3 -2 6 -13 5 -11 0 -14 -3 -6 -6z"/>
<path d="M1429 2913 c-79 -85 -78 -98 0 -18 30 30 50 55 45 55 -6 0 -26 -17
-45 -37z"/>
<path d="M2400 2941 c0 -6 4 -12 9 -16 24 -14 98 -207 111 -291 11 -69 0 -101
-53 -155 -18 -19 -45 -49 -61 -68 -21 -26 -30 -31 -36 -21 -6 10 -9 6 -12 -13
-3 -28 -159 -221 -168 -208 -3 4 -27 27 -55 51 l-50 44 53 -56 54 -56 -129
-193 -130 -194 -59 2 c-71 2 -148 32 -186 74 -15 16 -36 29 -47 29 -11 0 -34
17 -51 38 -18 20 -27 28 -22 16 6 -11 18 -26 26 -34 22 -17 20 -29 -14 -96
-36 -72 -37 -81 -4 -115 l26 -28 -70 -45 c-38 -24 -73 -49 -77 -56 -7 -11 127
72 156 97 14 12 25 9 85 -23 38 -20 73 -39 77 -44 14 -13 -37 -100 -102 -175
-79 -91 -125 -155 -111 -155 6 0 13 8 17 18 3 9 25 37 48 63 23 25 74 88 114
140 39 51 80 105 90 119 11 14 91 134 179 267 88 133 179 268 203 300 60 82
269 324 284 329 20 8 45 86 41 130 -6 74 -105 334 -127 334 -5 0 -9 -4 -9 -9z"/>
<path d="M2970 2930 c-19 -11 -30 -19 -25 -19 6 0 26 8 45 19 19 11 31 19 25
19 -5 0 -26 -8 -45 -19z"/>
<path d="M2577 2923 c-27 -8 -46 -17 -43 -20 5 -5 106 26 106 33 0 6 -8 4 -63
-13z"/>
<path d="M1975 2835 c-34 -67 -40 -90 -40 -142 0 -35 4 -63 9 -63 5 0 6 25 3
57 -5 52 -3 61 34 129 22 41 39 79 37 87 -2 7 -21 -23 -43 -68z"/>
<path d="M2852 2871 c-76 -47 -96 -65 -27 -26 85 49 110 65 100 65 -5 -1 -38
-18 -73 -39z"/>
<path d="M3690 2890 c6 -11 13 -20 16 -20 2 0 0 9 -6 20 -6 11 -13 20 -16 20
-2 0 0 -9 6 -20z"/>
<path d="M2396 2879 c-17 -80 -27 -141 -24 -145 3 -2 13 32 23 76 10 44 16 83
12 86 -3 4 -8 -4 -11 -17z"/>
<path d="M2484 2884 c-18 -14 -18 -14 6 -3 31 14 36 19 24 19 -6 0 -19 -7 -30
-16z"/>
<path d="M3378 2773 c-2 -65 -1 -147 3 -183 4 -43 6 -3 7 118 1 100 0 182 -2
182 -2 0 -5 -53 -8 -117z"/>
<path d="M4030 2865 c0 -5 5 -17 10 -25 5 -8 10 -10 10 -5 0 6 -5 17 -10 25
-5 8 -10 11 -10 5z"/>
<path d="M3740 2820 c6 -11 13 -20 16 -20 2 0 0 9 -6 20 -6 11 -13 20 -16 20
-2 0 0 -9 6 -20z"/>
<path d="M3810 2806 c0 -2 8 -10 18 -17 15 -13 16 -12 3 4 -13 16 -21 21 -21
13z"/>
<path d="M3760 2786 c0 -2 8 -10 18 -17 15 -13 16 -12 3 4 -13 16 -21 21 -21
13z"/>
<path d="M1255 2728 l-50 -53 53 50 c48 46 57 55 49 55 -1 0 -25 -24 -52 -52z"/>
<path d="M3840 2766 c0 -2 8 -10 18 -17 15 -13 16 -12 3 4 -13 16 -21 21 -21
13z"/>
<path d="M1595 2714 c-9 -15 -12 -23 -6 -20 11 7 35 46 28 46 -3 0 -12 -12
-22 -26z"/>
<path d="M3870 2726 c0 -2 8 -10 18 -17 15 -13 16 -12 3 4 -13 16 -21 21 -21
13z"/>
<path d="M2099 2663 c-13 -16 -12 -17 4 -4 16 13 21 21 13 21 -2 0 -10 -8 -17
-17z"/>
<path d="M1179 2643 c-13 -16 -12 -17 4 -4 9 7 17 15 17 17 0 8 -8 3 -21 -13z"/>
<path d="M3860 2640 c6 -11 13 -20 16 -20 2 0 0 9 -6 20 -6 11 -13 20 -16 20
-2 0 0 -9 6 -20z"/>
<path d="M1881 2604 c-12 -15 -21 -32 -21 -38 0 -6 9 3 19 20 11 18 25 34 33
37 8 3 9 6 1 6 -6 1 -21 -11 -32 -25z"/>
<path d="M3985 2580 c10 -11 20 -20 23 -20 3 0 -3 9 -13 20 -10 11 -20 20 -23
20 -3 0 3 -9 13 -20z"/>
<path d="M1852 2520 c0 -19 2 -27 5 -17 2 9 2 25 0 35 -3 9 -5 1 -5 -18z"/>
<path d="M3676 2521 c4 -19 2 -36 -4 -40 -7 -4 -8 -20 -2 -46 5 -22 10 -70 10
-106 0 -36 3 -94 6 -128 6 -54 9 -61 29 -61 12 0 24 2 27 5 3 3 -5 51 -18 108
-27 119 -29 146 -7 97 31 -67 94 -168 109 -174 17 -7 19 10 2 17 -10 4 -10 8
1 15 11 8 11 13 -5 29 -11 11 -27 23 -36 26 -10 4 -18 11 -18 16 0 5 8 7 18 5
12 -4 22 6 35 36 9 22 17 46 17 54 0 16 -82 89 -141 126 -4 3 -13 17 -19 30
-9 22 -9 21 -4 -9z m74 -88 c62 -48 73 -72 47 -107 -12 -17 -18 -11 -65 62
-72 111 -70 114 18 45z"/>
<path d="M4031 2524 c13 -17 26 -30 28 -27 3 2 -8 16 -24 31 l-28 27 24 -31z"/>
<path d="M3641 2501 c-1 -34 -55 -136 -101 -190 -23 -27 -22 -27 -44 17 -9 17
-19 32 -22 32 -7 0 23 -57 70 -130 23 -36 70 -113 105 -172 35 -60 65 -108 67
-108 8 0 -56 113 -128 227 l-40 62 35 58 c39 64 70 134 63 141 -3 2 -1 15 4
28 6 14 6 33 0 46 -8 21 -9 19 -9 -11z m-43 -151 c-18 -33 -36 -60 -40 -60 -5
0 -8 -8 -8 -17 0 -14 -2 -15 -12 -4 -11 10 -9 14 5 22 10 6 31 35 48 65 17 30
33 54 36 54 2 0 -10 -27 -29 -60z"/>
<path d="M3381 2470 c0 -22 7 -45 20 -60 l20 -25 -12 25 c-7 14 -16 41 -20 60
l-7 35 -1 -35z"/>
<path d="M3825 2480 c10 -11 20 -20 23 -20 3 0 -3 9 -13 20 -10 11 -20 20 -23
20 -3 0 3 -9 13 -20z"/>
<path d="M2574 2481 c7 -11 46 -35 46 -28 0 3 -12 12 -26 22 -15 9 -23 12 -20
6z"/>
<path d="M3946 2470 c3 -14 11 -32 16 -40 6 -10 7 -7 2 10 -3 14 -11 32 -16
40 -6 10 -7 7 -2 -10z"/>
<path d="M4070 2473 c1 -4 17 -26 37 -48 36 -40 28 -25 -14 28 -13 16 -23 25
-23 20z"/>
<path d="M1878 2448 c12 -6 22 -16 22 -23 0 -14 -127 -165 -139 -165 -7 0 -31
73 -31 94 0 3 30 22 68 41 37 20 58 33 47 29 -11 -4 -35 -8 -54 -10 -20 -1
-44 -12 -59 -28 l-26 -25 20 -60 c10 -33 25 -68 32 -78 12 -17 16 -15 52 27
21 25 51 66 67 92 33 57 49 63 28 11 -25 -59 -56 -190 -49 -207 7 -20 25 -20
67 -3 50 21 57 35 47 97 l-9 55 2 -56 c1 -39 -2 -55 -9 -52 -7 2 -15 0 -19 -6
-3 -6 -15 -11 -27 -11 -23 0 -23 -12 7 154 l19 99 -23 18 c-13 11 -31 19 -40
18 -11 0 -10 -3 7 -11z m-37 -136 c-5 -9 -20 -26 -32 -37 -24 -20 -24 -20 -9
0 36 51 60 72 41 37z m-51 -72 c0 -5 -5 -10 -11 -10 -5 0 -7 5 -4 10 3 6 8 10
11 10 2 0 4 -4 4 -10z"/>
<path d="M1947 2449 c7 -7 15 -10 18 -7 3 3 -2 9 -12 12 -14 6 -15 5 -6 -5z"/>
<path d="M3875 2420 c10 -11 20 -20 23 -20 3 0 -3 9 -13 20 -10 11 -20 20 -23
20 -3 0 3 -9 13 -20z"/>
<path d="M1952 2390 c0 -14 2 -19 5 -12 2 6 2 18 0 25 -3 6 -5 1 -5 -13z"/>
<path d="M3980 2371 c0 -6 4 -13 10 -16 6 -3 7 1 4 9 -7 18 -14 21 -14 7z"/>
<path d="M1990 2366 c0 -2 8 -10 18 -17 15 -13 16 -12 3 4 -13 16 -21 21 -21
13z"/>
<path d="M3935 2350 c10 -11 20 -20 23 -20 3 0 -3 9 -13 20 -10 11 -20 20 -23
20 -3 0 3 -9 13 -20z"/>
<path d="M4185 2313 c15 -24 30 -43 32 -43 7 0 -31 61 -46 73 -8 7 -2 -7 14
-30z"/>
<path d="M1520 2277 c-36 -34 -72 -71 -80 -82 -8 -11 22 16 68 60 74 71 88 86
80 85 -2 -1 -32 -29 -68 -63z"/>
<path d="M2035 2310 c10 -11 20 -20 23 -20 3 0 -3 9 -13 20 -10 11 -20 20 -23
20 -3 0 3 -9 13 -20z"/>
<path d="M3430 2255 c0 -5 5 -17 10 -25 5 -8 10 -10 10 -5 0 6 -5 17 -10 25
-5 8 -10 11 -10 5z"/>
<path d="M3865 2253 c46 -46 106 -94 97 -78 -5 11 -32 36 -59 54 -26 19 -43
30 -38 24z"/>
<path d="M4241 2225 c12 -22 26 -44 32 -50 15 -16 -20 48 -38 70 -9 11 -7 2 6
-20z"/>
<path d="M1680 2185 c-24 -25 -40 -45 -34 -45 5 0 30 20 54 45 24 25 40 45 34
45 -5 0 -30 -20 -54 -45z"/>
<path d="M1795 2149 c-4 -6 -5 -12 -2 -15 2 -3 7 2 10 11 7 17 1 20 -8 4z"/>
<path d="M3850 2143 c0 -6 8 -21 19 -34 10 -13 21 -31 24 -39 3 -8 6 -10 6 -3
1 7 -10 29 -24 49 -14 20 -25 32 -25 27z"/>
<path d="M3972 2125 c0 -16 2 -22 5 -12 2 9 2 23 0 30 -3 6 -5 -1 -5 -18z"/>
<path d="M1740 2109 c-12 -16 -21 -32 -18 -34 2 -2 13 12 26 31 28 42 21 45
-8 3z"/>
<path d="M1340 2048 c-51 -65 -57 -77 -16 -33 35 38 61 75 53 75 -2 0 -19 -19
-37 -42z"/>
<path d="M3941 2030 c-13 -34 -28 -59 -35 -57 -6 2 -16 -9 -23 -25 -8 -19 -28
-36 -58 -49 l-46 -20 -30 33 c-38 41 -35 35 81 -152 86 -139 181 -260 204
-260 5 0 -13 24 -41 53 -27 29 -67 79 -89 111 l-39 59 25 16 c45 28 110 98
110 118 0 11 -16 41 -35 66 l-35 46 20 52 c12 28 19 56 18 60 -2 5 -14 -18
-27 -51z"/>
<path d="M1073 2058 c-15 -18 -35 -58 -29 -58 2 0 13 16 25 35 20 35 22 46 4
23z"/>
<path d="M4290 2035 c0 -5 5 -17 10 -25 5 -8 10 -10 10 -5 0 6 -5 17 -10 25
-5 8 -10 11 -10 5z"/>
<path d="M1536 1990 c3 -14 10 -29 15 -34 14 -16 10 6 -7 34 l-15 25 7 -25z"/>
<path d="M4341 1960 c14 -31 19 -36 19 -24 0 6 -7 19 -16 30 -14 18 -14 18 -3
-6z"/>
<path d="M1269 1953 c-13 -16 -12 -17 4 -4 9 7 17 15 17 17 0 8 -8 3 -21 -13z"/>
<path d="M1686 1955 c4 -8 11 -15 16 -15 6 0 5 6 -2 15 -7 8 -14 15 -16 15 -2
0 -1 -7 2 -15z"/>
<path d="M1232 1903 c-22 -31 -69 -122 -57 -111 10 9 85 138 80 138 -2 0 -12
-12 -23 -27z"/>
<path d="M4360 1915 c0 -5 5 -17 10 -25 5 -8 10 -10 10 -5 0 6 -5 17 -10 25
-5 8 -10 11 -10 5z"/>
<path d="M4400 1910 c0 -3 12 -41 26 -85 29 -92 41 -214 26 -265 -9 -31 -10
-25 -11 50 -1 47 -8 108 -16 135 -8 28 -12 34 -9 15 4 -19 10 -82 13 -140 6
-92 4 -108 -11 -129 -20 -27 -24 -46 -7 -35 6 3 22 30 35 58 33 70 32 165 -1
282 -22 75 -44 131 -45 114z"/>
<path d="M2931 1888 c-1 -12 31 -89 35 -85 3 2 -4 24 -15 48 -11 24 -20 41
-20 37z"/>
<path d="M817 1803 c-4 -3 -7 -13 -7 -22 1 -13 3 -13 11 2 11 19 8 33 -4 20z"/>
<path d="M4000 1736 c25 -26 63 -62 85 -79 46 -35 26 -14 -65 69 -58 52 -60
53 -20 10z"/>
<path d="M1146 1743 c-6 -14 -5 -15 5 -6 7 7 10 15 7 18 -3 3 -9 -2 -12 -12z"/>
<path d="M812 1725 c0 -16 2 -22 5 -12 2 9 2 23 0 30 -3 6 -5 -1 -5 -18z"/>
<path d="M2995 1700 c9 -16 18 -30 21 -30 2 0 -2 14 -11 30 -9 17 -18 30 -21
30 -2 0 2 -13 11 -30z"/>
<path d="M4332 1690 c0 -19 2 -27 5 -17 2 9 2 25 0 35 -3 9 -5 1 -5 -18z"/>
<path d="M3631 1685 c1 -19 18 -51 18 -35 0 8 -4 22 -9 30 -5 8 -9 11 -9 5z"/>
<path d="M3030 1641 c5 -11 15 -23 21 -27 6 -3 3 5 -6 20 -20 30 -30 35 -15 7z"/>
<path d="M4321 1624 c0 -11 3 -14 6 -6 3 7 2 16 -1 19 -3 4 -6 -2 -5 -13z"/>
<path d="M4130 1626 c0 -2 8 -10 18 -17 15 -13 16 -12 3 4 -13 16 -21 21 -21
13z"/>
<path d="M4075 1530 c14 -27 25 -56 25 -63 0 -8 10 -22 22 -33 l22 -19 -17 25
c-9 13 -17 37 -17 52 0 15 -5 30 -11 33 -5 4 -8 12 -6 18 4 12 -20 36 -36 37
-4 0 4 -22 18 -50z"/>
<path d="M3672 1565 c0 -5 6 -26 13 -45 7 -19 14 -28 14 -20 0 8 -6 29 -14 45
-7 17 -13 26 -13 20z"/>
<path d="M1100 1525 c0 -8 4 -15 10 -15 5 0 7 7 4 15 -4 8 -8 15 -10 15 -2 0
-4 -7 -4 -15z"/>
<path d="M1409 1519 l-24 -20 28 17 c15 9 27 18 27 20 0 8 -8 4 -31 -17z"/>
<path d="M671 1504 c0 -11 3 -14 6 -6 3 7 2 16 -1 19 -3 4 -6 -2 -5 -13z"/>
<path d="M840 1470 c6 -11 13 -20 16 -20 2 0 0 9 -6 20 -6 11 -13 20 -16 20
-2 0 0 -9 6 -20z"/>
<path d="M3137 1477 c100 -162 136 -217 140 -217 5 0 -17 38 -90 153 -27 42
-51 77 -53 77 -3 0 -1 -6 3 -13z"/>
<path d="M4275 1479 c-4 -6 -5 -12 -2 -15 2 -3 7 2 10 11 7 17 1 20 -8 4z"/>
<path d="M3701 1464 c0 -11 3 -14 6 -6 3 7 2 16 -1 19 -3 4 -6 -2 -5 -13z"/>
<path d="M1371 1434 c0 -11 3 -14 6 -6 3 7 2 16 -1 19 -3 4 -6 -2 -5 -13z"/>
<path d="M880 1415 c13 -14 26 -25 28 -25 3 0 -5 11 -18 25 -13 14 -26 25 -28
25 -3 0 5 -11 18 -25z"/>
<path d="M1543 1410 c-40 -36 -56 -140 -22 -140 6 0 8 7 5 15 -3 8 -9 21 -12
29 -3 9 3 19 15 26 11 6 28 24 36 40 26 51 16 66 -22 30z"/>
<path d="M4170 1376 c0 -2 7 -9 15 -16 13 -11 14 -10 9 4 -5 14 -24 23 -24 12z"/>
<path d="M4150 1350 c0 -5 5 -10 11 -10 5 0 7 5 4 10 -3 6 -8 10 -11 10 -2 0
-4 -4 -4 -10z"/>
<path d="M4171 1317 c-13 -21 -12 -21 5 -5 10 10 16 20 13 22 -3 3 -11 -5 -18
-17z"/>
<path d="M680 1324 c1 -12 39 -61 40 -51 0 5 -9 20 -20 34 -11 14 -20 22 -20
17z"/>
<path d="M4112 1278 c-16 -29 -44 -72 -61 -96 -32 -43 -189 -174 -204 -169 -4
1 -16 21 -27 44 -18 41 -18 41 3 61 12 11 38 29 57 41 19 11 30 21 24 21 -7 0
-37 -19 -67 -42 -157 -122 -261 -198 -269 -198 -5 0 -7 -4 -3 -9 3 -6 18 -6
38 1 40 14 62 33 27 24 l-25 -6 24 12 c21 11 26 10 35 -6 6 -10 35 -56 64
-102 28 -46 52 -85 52 -87 0 -3 -17 -7 -38 -9 -62 -9 -316 -114 -307 -128 5
-7 -48 -218 -66 -262 -12 -29 -40 -44 -109 -57 -35 -7 -38 -9 -15 -9 17 -1 52
7 79 16 l49 17 24 85 c13 47 30 115 39 151 15 65 16 66 64 89 28 13 52 22 54
19 2 -2 8 -17 13 -34 9 -25 15 -30 39 -27 35 3 157 42 151 48 -2 2 -30 -5 -62
-16 -78 -27 -111 -26 -118 2 -8 29 -3 34 46 56 48 21 110 38 88 24 -9 -7 -10
-12 -2 -16 13 -8 5 -26 -11 -26 -5 0 -8 7 -4 15 7 19 -5 19 -30 0 -14 -11 -15
-14 -3 -9 31 10 29 -14 -1 -26 -37 -15 -51 -34 -16 -20 52 19 87 41 136 85 28
25 81 61 118 80 103 52 258 188 320 278 29 42 52 78 52 80 0 2 -29 28 -66 57
-54 45 -64 59 -59 77 9 36 -1 27 -33 -29z m79 -54 c30 -26 55 -50 57 -54 1 -4
-7 -18 -18 -31 l-21 -24 15 26 c15 24 15 26 -17 55 -17 17 -45 40 -61 52 -16
12 -24 22 -19 22 5 0 34 -21 64 -46z m-101 -76 c0 -5 4 -6 10 -3 5 3 30 -10
56 -29 l45 -35 -40 -44 c-50 -54 -161 -142 -161 -128 0 6 -5 11 -11 11 -6 0
-9 -7 -6 -14 4 -10 1 -13 -7 -10 -14 5 -35 -15 -33 -31 2 -9 -108 -74 -125
-75 -9 0 -58 94 -58 109 0 7 9 7 25 1 14 -5 25 -6 25 -3 0 4 5 2 11 -4 13 -13
73 3 64 17 -3 4 6 7 20 6 14 0 25 -6 25 -13 0 -7 7 -10 15 -7 8 4 12 10 9 15
-3 5 3 10 13 11 10 0 23 2 30 2 6 1 23 11 36 23 14 12 27 19 30 17 3 -3 8 -1
12 5 3 6 3 11 -2 12 -4 0 -16 2 -25 4 -12 2 -15 -2 -11 -13 5 -14 4 -15 -8 -4
-12 11 -12 15 3 26 16 12 15 14 -5 35 l-22 23 24 -12 c21 -11 23 -10 17 6 -4
10 -1 21 6 25 10 6 7 13 -10 30 l-23 21 21 23 c21 22 50 24 50 3z m-160 -128
c0 -5 -7 -10 -15 -10 -8 0 -15 5 -15 10 0 6 7 10 15 10 8 0 15 -4 15 -10z m81
0 c5 0 9 -4 9 -10 0 -15 -20 -12 -38 7 -16 16 -16 16 1 10 10 -4 23 -7 28 -7z
m-16 -30 c16 -17 16 -20 2 -20 -26 0 -47 11 -47 26 0 20 24 17 45 -6z m-276
-29 c9 -16 8 -18 -8 -14 -24 6 -36 33 -16 33 8 0 19 -9 24 -19z m141 -47 c0
-8 -7 -14 -15 -14 -15 0 -21 21 -9 33 10 9 24 -2 24 -19z m-90 -179 c0 -2 -10
-10 -22 -16 -21 -11 -22 -11 -9 4 13 16 31 23 31 12z"/>
<path d="M4039 1132 c-11 -14 -11 -15 0 -5 7 6 20 9 27 6 8 -3 14 -3 14 0 0
14 -30 14 -41 -1z"/>
<path d="M4085 1011 c-3 -5 -2 -12 3 -15 5 -3 9 1 9 9 0 17 -3 19 -12 6z"/>
<path d="M3903 866 c0 -8 6 -12 14 -9 7 3 10 9 7 14 -8 14 -21 11 -21 -5z"/>
<path d="M3797 849 c7 -7 15 -10 18 -7 3 3 -2 9 -12 12 -14 6 -15 5 -6 -5z"/>
<path d="M3825 831 c-3 -5 0 -13 6 -17 8 -5 9 -3 4 6 -6 10 -4 12 9 7 10 -4
15 -3 11 3 -8 13 -22 13 -30 1z"/>
<path d="M970 1314 c0 -6 17 -26 37 -45 l38 -34 -30 35 c-16 19 -33 39 -37 45
-5 5 -8 5 -8 -1z"/>
<path d="M1380 1306 c0 -2 8 -10 18 -17 15 -13 16 -12 3 4 -13 16 -21 21 -21
13z"/>
<path d="M1453 1245 c15 -17 27 -36 27 -42 0 -6 -17 -23 -37 -39 -69 -52 -74
-60 -61 -91 6 -16 22 -39 35 -54 18 -20 21 -28 10 -38 -17 -19 35 12 113 64
42 29 68 41 74 35 6 -6 14 -10 19 -10 5 0 -7 18 -28 41 -20 23 -43 55 -51 73
l-13 31 -1 -27 c0 -15 4 -30 10 -33 5 -3 15 -16 21 -28 6 -12 -9 1 -33 28 -23
28 -59 66 -78 85 -21 21 -24 23 -7 5z m90 -152 c-4 -23 -17 -40 -49 -63 -51
-36 -62 -33 -95 31 l-19 38 53 45 52 46 31 -33 c24 -26 30 -40 27 -64z"/>
<path d="M922 1200 c0 -19 2 -27 5 -17 2 9 2 25 0 35 -3 9 -5 1 -5 -18z"/>
<path d="M3336 1151 c26 -39 49 -71 51 -71 5 0 2 5 -44 77 -18 28 -38 55 -44
58 -6 4 11 -25 37 -64z"/>
<path d="M982 1175 c0 -16 2 -22 5 -12 2 9 2 23 0 30 -3 6 -5 -1 -5 -18z"/>
<path d="M3936 1128 c-31 -42 -33 -48 -12 -28 24 21 63 80 53 80 -1 0 -20 -24
-41 -52z"/>
<path d="M932 1130 c0 -14 2 -19 5 -12 2 6 2 18 0 25 -3 6 -5 1 -5 -13z"/>
<path d="M991 1124 c0 -11 3 -14 6 -6 3 7 2 16 -1 19 -3 4 -6 -2 -5 -13z"/>
<path d="M941 1084 c0 -11 3 -14 6 -6 3 7 2 16 -1 19 -3 4 -6 -2 -5 -13z"/>
<path d="M1016 1050 c11 -43 55 -117 87 -147 28 -25 27 -24 -6 18 -20 25 -48
70 -62 100 -14 30 -22 43 -19 29z"/>
<path d="M1650 1062 c0 -6 7 -15 17 -20 14 -9 14 -11 -6 -22 -30 -15 -21 -23
12 -11 23 9 33 5 76 -26 47 -35 48 -37 30 -52 -13 -11 -16 -21 -10 -30 7 -11
11 -9 20 8 14 25 29 26 67 6 20 -10 23 -15 12 -15 -10 0 -18 -5 -18 -10 0 -6
11 -8 28 -3 33 8 63 7 71 -4 3 -4 11 -8 16 -8 39 -2 97 -19 102 -32 3 -8 -2
-32 -12 -54 -27 -58 -11 -58 18 0 22 45 26 49 42 37 18 -13 17 -14 -1 -24 -10
-6 -14 -11 -9 -11 12 0 50 27 44 32 -22 19 -119 58 -179 72 -89 21 -178 63
-240 114 -76 61 -80 64 -80 53z"/>
<path d="M950 1050 c0 -22 65 -156 81 -166 7 -4 3 9 -10 29 -12 20 -33 62 -46
94 -13 32 -24 51 -25 43z"/>
<path d="M2263 995 c0 -38 2 -53 4 -32 2 20 2 52 0 70 -2 17 -4 1 -4 -38z"/>
<path d="M4211 1037 c-13 -21 -12 -21 5 -5 10 10 16 20 13 22 -3 3 -11 -5 -18
-17z"/>
<path d="M3110 919 c-187 -83 -328 -129 -425 -137 l-80 -7 -2 54 c-1 29 -6 58
-12 64 -14 14 -14 -12 -2 -65 5 -22 5 -36 0 -32 -5 3 -9 13 -9 22 0 14 -2 15
-9 3 -25 -39 52 -87 119 -76 22 4 40 10 40 15 0 4 10 10 23 12 22 4 22 3 19
-85 -2 -58 1 -94 8 -101 8 -8 10 -7 5 6 -4 9 5 53 20 99 19 60 23 84 14 90 -8
5 -5 10 9 18 26 14 59 14 67 1 3 -5 11 -10 17 -10 7 0 7 4 0 13 -8 9 -1 12 33
12 46 0 68 11 47 24 -7 4 22 23 77 48 l88 40 18 -56 c9 -31 26 -74 37 -95 11
-21 26 -56 33 -77 13 -37 13 -40 -13 -70 -21 -26 -22 -30 -6 -21 34 18 48 56
35 93 -15 42 -14 54 2 40 11 -8 16 -3 25 25 6 20 8 42 5 50 -3 9 2 14 15 14
12 0 53 11 92 26 38 14 75 22 82 18 7 -5 8 -3 3 6 -6 10 -4 12 11 6 10 -4 15
-4 11 0 -4 4 5 16 20 27 32 22 26 20 -78 -22 -42 -17 -91 -32 -110 -33 -31 -3
-35 0 -60 52 -15 30 -25 58 -22 63 8 13 -11 6 -147 -54z m157 -21 c17 -32 28
-58 23 -58 -4 0 -18 23 -31 50 -13 28 -30 50 -39 50 -13 0 -13 -1 0 -10 17
-11 9 -13 -15 -3 -15 5 -14 8 6 19 13 7 24 12 25 11 0 -1 15 -28 31 -59z m-53
-44 c3 -8 2 -12 -4 -9 -6 3 -10 10 -10 16 0 14 7 11 14 -7z"/>
<path d="M3389 943 c-13 -16 -12 -17 4 -4 9 7 17 15 17 17 0 8 -8 3 -21 -13z"/>
<path d="M1452 875 c37 -38 69 -67 70 -65 2 3 -28 34 -67 70 l-70 64 67 -69z"/>
<path d="M2459 865 c-9 -47 -17 -64 -26 -60 -36 14 -45 15 -20 0 28 -16 36
-35 15 -36 -7 0 -3 -5 10 -11 18 -9 26 -8 40 5 9 10 11 17 5 17 -6 0 -13 -6
-16 -12 -10 -28 -16 0 -7 33 6 18 14 52 20 74 l9 40 51 -3 c32 -3 50 0 50 7 0
7 -23 11 -59 11 l-59 0 -13 -65z"/>
<path d="M4103 862 c-34 -25 -60 -48 -58 -50 5 -5 97 61 115 83 18 22 11 18
-57 -33z"/>
<path d="M1727 844 c-23 -21 -32 -34 -22 -32 14 2 76 69 64 68 -2 0 -21 -17
-42 -36z"/>
<path d="M3475 850 c-3 -5 -1 -10 4 -10 6 0 11 5 11 10 0 6 -2 10 -4 10 -3 0
-8 -4 -11 -10z"/>
<path d="M2298 843 c7 -3 16 -2 19 1 4 3 -2 6 -13 5 -11 0 -14 -3 -6 -6z"/>
<path d="M3390 840 c-9 -6 -10 -10 -3 -10 6 0 15 5 18 10 8 12 4 12 -15 0z"/>
<path d="M2480 815 c0 -8 2 -15 4 -15 2 0 6 7 10 15 3 8 1 15 -4 15 -6 0 -10
-7 -10 -15z"/>
<path d="M2184 801 c12 -13 22 -17 26 -11 7 11 100 2 100 -10 0 -4 -11 -38
-25 -75 -14 -37 -24 -69 -22 -72 7 -6 33 40 45 82 17 56 24 65 50 58 22 -5 22
-6 -8 -40 -16 -18 -30 -36 -30 -40 0 -10 78 62 79 73 1 10 -81 31 -194 49
l-40 7 19 -21z"/>
<path d="M2238 750 c-5 -33 6 -28 17 8 3 12 2 22 -3 22 -5 0 -12 -14 -14 -30z"/>
<path d="M1924 739 c33 -11 62 -21 64 -24 2 -2 -6 -18 -18 -35 -34 -47 -18
-72 60 -93 81 -23 89 -16 10 8 -82 25 -89 36 -55 81 15 20 23 39 19 44 -10 8
-117 41 -131 39 -4 -1 19 -10 51 -20z"/>
<path d="M1675 731 c20 -24 112 -81 130 -81 6 0 -15 14 -45 31 -30 16 -66 40
-80 52 l-25 22 20 -24z"/>
<path d="M3840 690 c-8 -5 -10 -10 -5 -10 6 0 17 5 25 10 8 5 11 10 5 10 -5 0
-17 -5 -25 -10z"/>
<path d="M1829 663 c-13 -16 -12 -17 4 -4 16 13 21 21 13 21 -2 0 -10 -8 -17
-17z"/>
<path d="M3778 673 c6 -2 18 -2 25 0 6 3 1 5 -13 5 -14 0 -19 -2 -12 -5z"/>
<path d="M3142 648 c-40 -12 -70 -23 -68 -25 3 -3 29 2 59 11 30 9 64 16 75
16 12 0 24 5 27 10 9 14 -8 12 -93 -12z"/>
<path d="M3186 627 c-10 -8 -16 -22 -14 -33 3 -16 11 -19 48 -16 47 3 204 41
197 48 -2 2 -54 -8 -116 -22 -61 -15 -114 -24 -118 -21 -3 4 2 18 11 32 19 28
17 30 -8 12z"/>
<path d="M3028 613 c6 -2 18 -2 25 0 6 3 1 5 -13 5 -14 0 -19 -2 -12 -5z"/>
<path d="M2880 603 c-36 -2 -68 -7 -72 -12 -5 -4 22 -5 58 -3 l67 4 -7 -68
c-4 -38 -9 -85 -12 -105 -5 -35 -5 -35 66 -72 40 -20 82 -37 94 -36 13 1 6 6
-20 14 -22 7 -54 20 -71 29 -58 30 -60 33 -48 142 l10 99 35 6 35 6 -35 0
c-19 -1 -64 -2 -100 -4z"/>
<path d="M2370 579 c52 -10 99 -17 105 -16 12 4 -153 37 -180 36 -11 0 23 -9
75 -20z"/>
<path d="M2125 560 c11 -5 29 -8 40 -8 16 0 15 2 -5 8 -34 11 -60 11 -35 0z"/>
<path d="M2772 545 c-7 -8 -9 -15 -4 -15 5 0 15 7 22 15 16 19 -1 19 -18 0z"/>
<path d="M2213 543 c9 -2 23 -2 30 0 6 3 -1 5 -18 5 -16 0 -22 -2 -12 -5z"/>
<path d="M2548 543 c7 -3 16 -2 19 1 4 3 -2 6 -13 5 -11 0 -14 -3 -6 -6z"/>
<path d="M2270 533 c8 -3 18 -10 21 -15 3 -5 9 -3 12 6 5 12 0 16 -21 15 -16
0 -21 -3 -12 -6z"/>
<path d="M2593 533 c9 -2 25 -2 35 0 9 3 1 5 -18 5 -19 0 -27 -2 -17 -5z"/>
<path d="M2678 523 c12 -2 30 -2 40 0 9 3 -1 5 -23 4 -22 0 -30 -2 -17 -4z"/>
<path d="M2303 450 c0 -25 2 -35 4 -22 2 12 2 32 0 45 -2 12 -4 2 -4 -23z"/>
<path d="M2312 375 c0 -16 2 -22 5 -12 2 9 2 23 0 30 -3 6 -5 -1 -5 -18z"/>
<path d="M2911 356 c0 -11 -11 -31 -23 -44 l-23 -25 23 12 c27 14 36 32 29 58
-4 16 -5 16 -6 -1z"/>
<path d="M2310 329 c0 -14 67 -55 77 -46 2 2 -10 10 -27 17 -17 7 -35 20 -40
29 -8 14 -9 14 -10 0z"/>
<path d="M3108 303 c6 -2 18 -2 25 0 6 3 1 5 -13 5 -14 0 -19 -2 -12 -5z"/>
<path d="M3290 256 c-38 -56 -40 -73 -2 -20 36 50 44 64 38 64 -3 0 -19 -20
-36 -44z"/>
<path d="M2903 255 c0 -22 2 -30 4 -17 2 12 2 30 0 40 -3 9 -5 -1 -4 -23z"/>
<path d="M3194 223 c29 -31 36 -46 31 -62 -5 -16 -3 -19 8 -15 24 9 7 47 -37
84 l-41 34 39 -41z"/>
<path d="M3315 210 c-19 -12 -24 -20 -14 -20 9 0 24 9 34 20 23 25 18 25 -20
0z"/>
<path d="M2760 185 c-13 -14 -21 -27 -18 -30 2 -3 14 9 27 25 26 37 23 39 -9
5z"/>
<path d="M2665 175 c17 -13 34 -24 39 -25 6 0 -5 11 -24 25 -44 32 -54 32 -15
0z"/>
<path d="M2844 159 c-19 -22 -19 -22 4 -8 12 8 22 17 22 21 0 12 -6 9 -26 -13z"/>
<path d="M3273 168 c9 -7 24 -22 32 -33 15 -19 16 -19 4 5 -12 26 -27 40 -43
40 -6 0 -2 -6 7 -12z"/>
<path d="M2893 125 c0 -27 2 -38 4 -22 2 15 2 37 0 50 -2 12 -4 0 -4 -28z"/>
<path d="M3278 113 c5 -21 7 -23 10 -9 2 10 0 22 -6 28 -6 6 -7 0 -4 -19z"/>
<path d="M2638 123 c6 -2 18 -2 25 0 6 3 1 5 -13 5 -14 0 -19 -2 -12 -5z"/>
<path d="M2676 105 c-9 -14 -13 -25 -9 -25 10 0 36 40 30 46 -2 3 -12 -7 -21
-21z"/>
<path d="M2770 111 c15 -30 30 -35 17 -6 -7 14 -16 25 -20 25 -4 0 -3 -9 3
-19z"/>
<path d="M3179 103 l-24 -28 28 24 c25 23 32 31 24 31 -2 0 -14 -12 -28 -27z"/>
<path d="M2312 100 c0 -14 2 -19 5 -12 2 6 2 18 0 25 -3 6 -5 1 -5 -13z"/>
<path d="M3213 103 c-3 -10 -8 -22 -10 -28 -3 -5 3 -1 11 9 16 20 21 36 11 36
-3 0 -8 -8 -12 -17z"/>
<path d="M2730 95 c0 -8 5 -15 10 -15 6 0 10 7 10 15 0 8 -4 15 -10 15 -5 0
-10 -7 -10 -15z"/>
</g>
</svg>
